<?xml version="1.0" encoding="utf-8"?>
<!-- Generator: Adobe Illustrator 19.2.1, SVG Export Plug-In . SVG Version: 6.00 Build 0)  -->
<svg version="1.1" id="Layer_1" xmlns="http://www.w3.org/2000/svg" xmlns:xlink="http://www.w3.org/1999/xlink" x="0px" y="0px"
	 viewBox="0 0 99.4 27.1" style="enable-background:new 0 0 99.4 27.1;" xml:space="preserve">
<style type="text/css">
	.st0{fill-rule:evenodd;clip-rule:evenodd;fill:#FFFFFF;}
	.st1{fill:none;stroke:#FFFFFF;stroke-width:0.7501;stroke-miterlimit:22.9256;}
</style>
<g>
	<path class="st0" d="M0,0h18.8c4.4,0,8.1,3.6,8.1,8.1v18.8H8.1c-4.4,0-8.1-3.6-8.1-8.1V0L0,0z M15,8.1L15,8.1l0,10.7h0
		c0,3.8-3.1,7-7,7c-3.8,0-7-3.1-7-7l0-17.7h3.2l0,17.7c0,2.1,1.7,3.7,3.7,3.7c2.1,0,3.7-1.7,3.7-3.7v0V8h0c0-3.8,3.1-7,7-7
		c3.8,0,7,3.1,7,7c0,3.8-3.2,7-7,7l-2.7,0v-3.2l2.7,0c2.1,0,3.7-1.7,3.7-3.7c0-2.1-1.7-3.7-3.7-3.7C16.7,4.3,15,6,15,8.1
		C15,8.1,15,8.1,15,8.1L15,8.1z"/>
	<path class="st1" d="M39.7,22.6V4.6H37v19.1h-2.7V4.6h-2.8v17.9c0,0.6,0.1,1.1,0.3,1.6c0.2,0.5,0.5,0.9,0.9,1.3
		c0.4,0.4,0.8,0.7,1.3,0.9c0.5,0.2,1,0.3,1.6,0.3c0.6,0,1.1-0.1,1.6-0.3c0.5-0.2,0.9-0.5,1.3-0.9c0.4-0.4,0.7-0.8,0.9-1.3
		C39.6,23.7,39.7,23.2,39.7,22.6L39.7,22.6z M46.3,10.1h-4.1v16.4h2.7V12.9h2.7v13.7h2.7V14.2c0-0.6-0.1-1.1-0.3-1.6
		c-0.2-0.5-0.5-0.9-0.9-1.3c-0.4-0.4-0.8-0.7-1.3-0.9C47.4,10.2,46.9,10.1,46.3,10.1L46.3,10.1z M55.2,26.7V10.1h-2.7V24
		c0,0.8,0.3,1.4,0.8,1.9C53.8,26.4,54.5,26.7,55.2,26.7L55.2,26.7z M52.5,4.6v2.7h2.7V4.6H52.5L52.5,4.6z"/>
	<path class="st0" d="M67.1,8.8c0-0.6-0.1-1.1-0.3-1.6c-0.2-0.5-0.5-0.9-0.9-1.3c-0.4-0.4-0.8-0.7-1.3-0.9c-0.5-0.2-1-0.3-1.6-0.3
		h-4.1v21.9h2.7v-5.9H63c0.6,0,1.1-0.1,1.6-0.3c0.5-0.2,0.9-0.5,1.3-0.9s0.7-0.8,0.9-1.3c0.2-0.5,0.3-1,0.3-1.6V8.8L67.1,8.8z
		 M64.4,17.9h-2.7V7.4h2.7V17.9L64.4,17.9z"/>
	<path class="st0" d="M69.2,14.3v12.3h2.7V12.9h2.7v-2.7h-1.4c-0.6,0-1.1,0.1-1.6,0.3c-0.5,0.2-0.9,0.5-1.3,0.9
		c-0.4,0.4-0.7,0.8-0.9,1.3C69.3,13.1,69.2,13.7,69.2,14.3L69.2,14.3z"/>
	<path class="st0" d="M79.3,26.7V10.1h-2.7V24c0,0.8,0.3,1.4,0.8,1.9C77.9,26.4,78.5,26.7,79.3,26.7L79.3,26.7z M76.5,4.6v2.7h2.7
		V4.6H76.5L76.5,4.6z"/>
	<path class="st0" d="M85.7,10.1h-4.1v16.4h2.7V12.9H87v13.7h2.7V14.2c0-0.6-0.1-1.1-0.3-1.6c-0.2-0.5-0.5-0.9-0.9-1.3
		c-0.4-0.4-0.8-0.7-1.3-0.9C86.7,10.2,86.2,10.1,85.7,10.1L85.7,10.1z"/>
	<path class="st0" d="M94.5,26.7V12.9h4.8v-2.7h-4.8V7.4h-2.7V24c0,0.8,0.3,1.4,0.8,1.9C93.2,26.4,93.8,26.7,94.5,26.7L94.5,26.7z"
		/>
</g>
</svg>
