<?xml version="1.0" encoding="utf-8"?>
<!-- Generator: Adobe Illustrator 19.2.1, SVG Export Plug-In . SVG Version: 6.00 Build 0)  -->
<svg version="1.1" id="Layer_1" xmlns="http://www.w3.org/2000/svg" xmlns:xlink="http://www.w3.org/1999/xlink" x="0px" y="0px"
	 viewBox="0 0 298.3 213.3" style="enable-background:new 0 0 298.3 213.3;" xml:space="preserve">
<style type="text/css">
	.st0{fill:#E6E7E8;stroke:#231F20;stroke-width:0.5;stroke-miterlimit:10;}
	.st1{fill:#FFFFFF;stroke:#231F20;stroke-width:0.5;stroke-miterlimit:10;}
	.st2{fill:none;stroke:#231F20;stroke-width:0.5;stroke-miterlimit:10;}
	.st3{fill:#231F20;}
	.st4{fill:#1B75BB;}
</style>
<path id="faceBg" class="st0" d="M238.3,206H22.9c-7.8,0-14.2-6.3-14.2-14.2V67.1c0-7.8,6.3-14.2,14.2-14.2h215.4
	c7.8,0,14.2,6.3,14.2,14.2v124.7C252.5,199.6,246.1,206,238.3,206z"/>
<line class="st1" x1="238.3" y1="52.9" x2="275.8" y2="52.9"/>
<line class="st1" x1="252.5" y1="65.2" x2="252.5" y2="30.5"/>
<line class="st1" x1="8.7" y1="65.2" x2="8.7" y2="30.5"/>
<line class="st1" x1="238.3" y1="206" x2="275.8" y2="206"/>
<g>
	<g>
		<line class="st2" x1="9.6" y1="37.6" x2="251.6" y2="37.6"/>
		<g>
			<path class="st3" d="M14.8,41.2c0.1-0.2,0.1-0.4-0.1-0.5l-4.8-3.1l4.8-3.1c0.2-0.1,0.2-0.3,0.1-0.5s-0.3-0.2-0.5-0.1l-5.3,3.4
				c-0.1,0.1-0.2,0.2-0.2,0.3s0.1,0.2,0.2,0.3l5.3,3.4c0.1,0,0.1,0.1,0.2,0.1C14.6,41.4,14.7,41.3,14.8,41.2z"/>
		</g>
		<g>
			<path class="st3" d="M246.5,41.2c-0.1-0.2-0.1-0.4,0.1-0.5l4.8-3.1l-4.8-3.1c-0.2-0.1-0.2-0.3-0.1-0.5s0.3-0.2,0.5-0.1l5.3,3.4
				c0.1,0.1,0.2,0.2,0.2,0.3s-0.1,0.2-0.2,0.3l-5.3,3.4c-0.1,0-0.1,0.1-0.2,0.1C246.7,41.4,246.6,41.3,246.5,41.2z"/>
		</g>
	</g>
</g>
<g>
	<g>
		<line class="st2" x1="273.9" y1="205.1" x2="273.9" y2="53.5"/>
		<g>
			<path class="st3" d="M277.5,199.9c-0.2-0.1-0.4-0.1-0.5,0.1l-3.1,4.8l-3.1-4.8c-0.1-0.2-0.3-0.2-0.5-0.1s-0.2,0.3-0.1,0.5
				l3.4,5.3c0.1,0.1,0.2,0.2,0.3,0.2s0.2-0.1,0.3-0.2l3.4-5.3c0-0.1,0.1-0.1,0.1-0.2C277.6,200.1,277.6,200,277.5,199.9z"/>
		</g>
		<g>
			<path class="st3" d="M277.5,58.6c-0.2,0.1-0.4,0.1-0.5-0.1l-3.1-4.8l-3.1,4.8c-0.1,0.2-0.3,0.2-0.5,0.1c-0.2-0.1-0.2-0.3-0.1-0.5
				l3.4-5.3c0.1-0.1,0.2-0.2,0.3-0.2s0.2,0.1,0.3,0.2l3.4,5.3c0,0.1,0.1,0.1,0.1,0.2C277.6,58.4,277.6,58.6,277.5,58.6z"/>
		</g>
	</g>
</g>
<g>
	<g>
		<line class="st2" x1="184.8" y1="137.4" x2="184.8" y2="101.1"/>
		<g>
			<path class="st3" d="M188.4,106.2c-0.2,0.1-0.4,0.1-0.5-0.1l-3.1-4.8l-3.1,4.8c-0.1,0.2-0.3,0.2-0.5,0.1s-0.2-0.3-0.1-0.5
				l3.4-5.3c0.1-0.1,0.2-0.2,0.3-0.2s0.2,0.1,0.3,0.2l3.4,5.3c0,0.1,0.1,0.1,0.1,0.2C188.6,106,188.6,106.2,188.4,106.2z"/>
		</g>
	</g>
</g>
<g>
	<g>
		<line class="st2" x1="184.8" y1="63.3" x2="184.8" y2="43"/>
		<g>
			<path class="st3" d="M188.4,58.2c-0.2-0.1-0.4-0.1-0.5,0.1l-3.1,4.8l-3.1-4.8c-0.1-0.2-0.3-0.2-0.5-0.1s-0.2,0.3-0.1,0.5l3.4,5.3
				c0.1,0.1,0.2,0.2,0.3,0.2s0.2-0.1,0.3-0.2l3.4-5.3c0-0.1,0.1-0.1,0.1-0.2C188.6,58.4,188.6,58.2,188.4,58.2z"/>
		</g>
	</g>
</g>
<line class="st1" x1="258.2" y1="210.2" x2="295.5" y2="210.2"/>
<g>
	<path d="M124.3,28.6c-1.3-0.6-1.9-1.7-1.9-2.7c0-1.9,1.6-3.2,3.7-3.2c2.3,0,3.5,1.4,3.5,2.9c0,1-0.5,2.1-2,2.8v0.1
		c1.5,0.6,2.4,1.7,2.4,3.1c0,2.1-1.8,3.5-4.1,3.5c-2.5,0-4-1.5-4-3.2C121.9,30.3,122.8,29.3,124.3,28.6L124.3,28.6z M128.3,31.8
		c0-1.4-1-2.1-2.6-2.6c-1.4,0.4-2.1,1.3-2.1,2.5c-0.1,1.2,0.9,2.3,2.4,2.3C127.4,33.9,128.3,33,128.3,31.8z M123.9,25.8
		c0,1.2,0.9,1.8,2.3,2.2c1-0.3,1.8-1.1,1.8-2.2c0-1-0.6-1.9-2-1.9C124.6,23.9,123.9,24.8,123.9,25.8z"/>
	<path d="M138.3,24.1c-0.3,0-0.8,0-1.2,0.1c-2.5,0.4-3.9,2.2-4.1,4.2h0c0.6-0.8,1.6-1.4,2.9-1.4c2.1,0,3.6,1.5,3.6,3.9
		c0,2.2-1.5,4.2-4,4.2c-2.5,0-4.2-2-4.2-5.1c0-2.3,0.8-4.2,2-5.4c1-1,2.3-1.6,3.8-1.8c0.5-0.1,0.9-0.1,1.2-0.1V24.1z M137.8,30.9
		c0-1.7-1-2.7-2.5-2.7c-1,0-1.9,0.6-2.3,1.5c-0.1,0.2-0.2,0.4-0.2,0.7c0,2,0.9,3.4,2.6,3.4C136.9,33.8,137.8,32.7,137.8,30.9z"/>
</g>
<g>
	<path d="M261.8,135.3v4.5l3.1,0.5c0-0.3-0.1-0.5-0.1-1c0-0.9,0.2-1.8,0.6-2.6c0.5-0.9,1.6-1.7,3-1.7c2.3,0,4.1,1.9,4.1,4.4
		c0,1.3-0.4,2.4-0.7,3l-1.2-0.4c0.3-0.5,0.7-1.5,0.7-2.6c0-1.5-1-2.8-2.6-2.8c-1.5,0-2.6,1-2.6,3.4c0,0.7,0.1,1.2,0.1,1.7l-5.7-0.8
		v-5.7H261.8z"/>
	<path d="M272.4,128h-3.3v5.5h-1l-7.6-5.3v-1.7h7.4v-1.7h1.2v1.7h3.3V128z M267.9,128h-4c-0.6,0-1.2,0-1.9-0.1v0.1
		c0.7,0.4,1.2,0.7,1.8,1l4.1,2.9h0V128z"/>
</g>
<g>
	<path d="M212.5,57.4h-3.3V63h-1l-7.6-5.3v-1.7h7.4v-1.7h1.2v1.7h3.3V57.4z M208,57.4h-4c-0.6,0-1.2,0-1.9-0.1v0.1
		c0.7,0.4,1.2,0.7,1.8,1l4.1,2.9h0V57.4z"/>
</g>
<g>
	<path d="M171.4,136.2L171.4,136.2l1.1,2.1l-1.2,0.3l-1.4-2.6v-1.4h11.9v1.6H171.4z"/>
	<path d="M181.9,130.3h-1l-1.2-1.3c-2.9-3-4.4-4.4-6.2-4.4c-1.2,0-2.3,0.6-2.3,2.3c0,1.1,0.6,2,1,2.5l-1.1,0.5
		c-0.7-0.8-1.2-2-1.2-3.4c0-2.6,1.8-3.6,3.5-3.6c2.2,0,4,1.6,6.4,4.1l0.9,0.9h0v-5.3h1.3V130.3z"/>
	<path d="M184.1,121.4c-1.1-0.4-3.1-0.9-4.4-1.1l-0.2-1.8c1.6,0.4,3.6,1.2,4.5,1.8L184.1,121.4z"/>
	<path d="M169.9,109.3h1.1l10.9,5.2v1.7l-10.5-5.2h0v5.8h-1.3V109.3z"/>
</g>
<rect x="8.7" y="64.2" class="st4" width="243.8" height="36"/>
<g>
	<g>
		<line class="st2" x1="215.9" y1="52" x2="215.9" y2="43"/>
		<g>
			<path class="st3" d="M219.5,46.8c-0.2-0.1-0.4-0.1-0.5,0.1l-3.1,4.8l-3.1-4.8c-0.1-0.2-0.3-0.2-0.5-0.1s-0.2,0.3-0.1,0.5l3.4,5.3
				c0.1,0.1,0.2,0.2,0.3,0.2s0.2-0.1,0.3-0.2l3.4-5.3c0-0.1,0.1-0.1,0.1-0.2C219.7,47,219.7,46.9,219.5,46.8z"/>
		</g>
	</g>
</g>
<g>
	<g>
		<line class="st2" x1="215.9" y1="82.2" x2="215.9" y2="65.1"/>
		<g>
			<path class="st3" d="M219.5,70.2c-0.2,0.1-0.4,0.1-0.5-0.1l-3.1-4.8l-3.1,4.8c-0.1,0.2-0.3,0.2-0.5,0.1c-0.2-0.1-0.2-0.3-0.1-0.5
				l3.4-5.3c0.1-0.1,0.2-0.2,0.3-0.2s0.2,0.1,0.3,0.2l3.4,5.3c0,0.1,0.1,0.1,0.1,0.2C219.7,70,219.7,70.2,219.5,70.2z"/>
		</g>
	</g>
</g>
<line class="st2" x1="215.9" y1="52.9" x2="215.9" y2="64.2"/>
</svg>
